<?xml version="1.0" standalone="no"?>
<!DOCTYPE svg PUBLIC "-//W3C//DTD SVG 20010904//EN"
 "http://www.w3.org/TR/2001/REC-SVG-20010904/DTD/svg10.dtd">
<svg version="1.0" xmlns="http://www.w3.org/2000/svg"
 width="900.000000pt" height="900.000000pt" viewBox="0 0 900.000000 900.000000"
 preserveAspectRatio="xMidYMid meet">
<metadata>
Created by potrace 1.10, written by Peter Selinger 2001-2011
</metadata>
<g transform="translate(0.000000,900.000000) scale(0.100000,-0.100000)"
fill="#000000" stroke="none">
<path d="M4200 8690 c-228 -25 -277 -30 -300 -36 -14 -4 -59 -13 -100 -20
-147 -25 -193 -35 -209 -43 -9 -5 -40 -12 -68 -16 -29 -4 -55 -11 -59 -16 -3
-5 -15 -9 -26 -9 -23 0 -141 -35 -170 -51 -10 -5 -25 -9 -34 -9 -9 0 -30 -6
-47 -14 -18 -8 -63 -24 -100 -37 -37 -12 -70 -26 -73 -30 -3 -5 -12 -9 -21 -9
-16 0 -37 -9 -183 -77 -123 -57 -244 -117 -250 -123 -3 -3 -27 -16 -55 -29
-27 -14 -52 -27 -55 -30 -3 -3 -25 -17 -50 -30 -64 -33 -320 -207 -400 -271
-19 -15 -73 -58 -120 -95 -47 -37 -89 -72 -95 -79 -5 -6 -23 -22 -40 -35 -66
-50 -276 -263 -382 -386 -28 -33 -61 -71 -73 -85 -12 -14 -43 -52 -68 -85 -26
-33 -50 -64 -54 -70 -48 -60 -108 -146 -108 -155 0 -5 -4 -10 -8 -10 -5 0 -14
-10 -21 -22 -6 -13 -19 -35 -29 -49 -40 -61 -127 -206 -158 -263 -73 -133
-204 -406 -204 -424 0 -7 -4 -20 -10 -30 -17 -32 -39 -86 -60 -152 -12 -36
-25 -74 -30 -85 -4 -11 -18 -54 -30 -95 -12 -41 -26 -82 -30 -91 -5 -9 -12
-34 -15 -55 -4 -22 -10 -48 -15 -59 -5 -11 -14 -45 -20 -75 -6 -30 -18 -86
-26 -125 -9 -38 -20 -99 -25 -135 -6 -36 -15 -81 -20 -100 -16 -59 -32 -255
-38 -485 -6 -215 -7 -221 -32 -260 -53 -81 -96 -163 -135 -253 -8 -17 -20 -47
-28 -65 -8 -17 -22 -57 -31 -87 -10 -30 -22 -66 -27 -80 -6 -14 -14 -50 -19
-80 -5 -30 -14 -77 -20 -105 -6 -29 -11 -176 -11 -356 0 -344 11 -441 74 -624
5 -16 14 -45 18 -64 5 -18 13 -38 19 -44 6 -6 11 -17 11 -25 0 -18 84 -191
136 -279 68 -115 159 -229 273 -344 93 -93 238 -212 281 -232 8 -4 29 -16 45
-27 38 -24 216 -112 275 -134 25 -10 60 -24 78 -32 18 -8 40 -14 50 -14 9 0
37 -6 62 -14 71 -22 182 -46 215 -46 24 0 49 -18 130 -98 55 -53 134 -124 175
-157 41 -33 86 -70 100 -82 14 -13 28 -23 31 -23 3 0 15 -8 27 -17 11 -10 30
-25 42 -33 12 -8 50 -35 85 -60 70 -50 78 -56 151 -103 28 -19 57 -37 65 -40
8 -4 37 -21 64 -37 28 -17 61 -36 75 -43 14 -6 27 -14 30 -17 5 -6 264 -133
315 -155 17 -7 48 -21 70 -31 22 -9 54 -23 70 -30 17 -6 41 -17 55 -23 14 -6
54 -20 90 -31 36 -12 74 -25 85 -30 24 -9 125 -41 210 -64 33 -9 76 -21 95
-27 19 -5 58 -14 85 -20 28 -6 82 -17 120 -26 39 -8 106 -19 150 -25 44 -5 94
-13 110 -18 144 -44 965 -44 1165 0 25 5 77 14 115 19 39 5 104 17 145 25 41
9 99 21 129 27 29 5 61 13 70 18 9 5 37 12 63 15 26 4 50 11 53 15 2 5 25 12
50 15 24 4 47 11 50 17 4 5 16 9 28 9 12 0 35 7 51 15 15 8 36 15 45 15 9 0
29 7 45 15 15 8 33 15 38 15 6 0 24 6 41 14 18 8 59 25 92 37 33 13 62 27 63
32 2 4 10 7 19 7 8 0 27 6 41 14 15 8 92 46 172 85 177 87 244 123 248 133 2
4 9 8 16 8 7 0 32 13 54 30 23 16 44 30 47 30 9 0 69 44 73 53 2 4 8 7 14 7 5
0 42 25 81 55 39 30 74 55 79 55 4 0 21 -28 36 -62 33 -73 107 -150 184 -193
48 -26 62 -29 153 -29 116 -1 166 17 234 85 77 77 170 243 246 439 10 25 24
60 31 78 8 17 20 47 28 65 7 17 21 52 31 77 10 25 24 60 32 77 7 18 20 49 28
68 8 19 22 51 30 70 8 19 21 50 28 68 8 17 21 50 30 72 8 22 22 60 32 85 9 25
23 59 30 75 7 17 20 50 30 75 10 25 24 60 32 77 7 18 20 49 28 68 8 19 21 50
29 67 7 18 21 53 31 78 10 25 24 60 31 77 8 18 20 48 27 65 8 18 21 49 29 68
9 19 23 55 33 80 10 25 24 60 31 78 8 17 20 47 28 65 7 17 21 52 31 77 10 25
24 60 31 78 8 17 20 47 28 65 7 17 21 52 31 77 29 76 63 153 105 245 67 144
76 160 122 207 25 26 58 50 72 54 24 6 26 10 26 61 l0 54 -122 -2 c-143 -3
-141 -5 -114 95 40 145 64 575 48 843 -14 242 -27 379 -41 441 -6 26 -15 74
-20 107 -12 74 -34 180 -54 260 -9 33 -21 83 -27 110 -7 28 -16 55 -20 60 -4
6 -11 29 -15 52 -4 24 -11 45 -16 49 -5 3 -9 15 -9 27 0 12 -7 35 -15 51 -8
15 -15 36 -15 45 0 9 -6 28 -14 43 -8 15 -17 40 -21 57 -4 17 -11 33 -16 36
-5 4 -9 13 -9 21 0 8 -9 36 -21 62 -11 26 -24 56 -28 67 -29 68 -176 361 -183
363 -4 2 -8 8 -8 14 0 13 -131 232 -142 236 -4 2 -8 8 -8 13 0 8 -38 66 -125
189 -21 30 -43 60 -49 67 -6 6 -22 26 -36 44 -137 180 -345 403 -516 554 -43
39 -81 72 -84 75 -3 3 -36 30 -75 60 -38 30 -72 57 -75 60 -6 7 -88 69 -120
90 -12 8 -28 20 -34 25 -18 16 -186 128 -254 169 -169 102 -463 247 -642 316
-30 12 -62 25 -70 30 -9 4 -30 11 -49 15 -18 4 -44 13 -59 21 -15 8 -34 14
-43 14 -9 0 -30 7 -45 15 -16 8 -39 15 -51 15 -12 0 -24 4 -28 9 -3 6 -27 13
-53 17 -26 3 -51 10 -57 14 -5 5 -32 11 -60 15 -27 4 -54 11 -60 15 -5 5 -39
13 -75 20 -36 6 -101 18 -145 26 -44 8 -120 19 -170 25 -49 5 -110 15 -135 21
-54 13 -711 20 -820 8z m790 -64 c216 -24 472 -65 486 -78 3 -4 33 -10 66 -14
32 -4 61 -10 63 -15 3 -4 27 -11 53 -15 26 -3 52 -10 57 -14 6 -5 28 -11 50
-15 22 -4 45 -11 50 -15 6 -4 26 -11 45 -15 19 -4 40 -11 45 -15 6 -4 25 -11
43 -15 18 -4 45 -13 60 -21 15 -8 35 -14 44 -14 9 0 19 -4 22 -9 3 -5 18 -12
33 -15 16 -4 42 -13 58 -21 17 -7 62 -28 100 -46 125 -56 320 -154 333 -166 7
-7 17 -13 22 -13 27 0 260 -151 445 -289 195 -145 298 -234 455 -391 133 -133
162 -164 250 -270 25 -29 50 -58 56 -64 26 -27 172 -227 230 -314 35 -53 68
-102 74 -109 5 -7 10 -15 10 -19 0 -3 26 -50 58 -103 31 -53 68 -119 82 -146
14 -28 28 -51 33 -53 4 -2 7 -9 7 -15 0 -6 21 -54 46 -107 71 -150 73 -153 80
-183 3 -15 10 -30 15 -33 5 -3 9 -13 9 -22 0 -9 7 -30 15 -46 8 -15 15 -33 15
-40 0 -6 7 -24 15 -39 8 -15 17 -43 21 -63 3 -19 10 -37 15 -40 5 -3 9 -14 9
-26 0 -11 6 -34 14 -51 14 -32 29 -85 47 -167 6 -25 13 -52 16 -60 26 -62 86
-405 103 -585 26 -270 19 -853 -10 -950 -7 -23 -17 -124 -20 -207 0 -5 -65 -8
-145 -8 l-145 0 0 -33 c0 -48 15 -57 91 -57 113 0 188 -46 160 -99 -6 -11 -11
-32 -11 -48 0 -15 -7 -37 -15 -47 -8 -11 -15 -34 -15 -50 -1 -17 -7 -42 -15
-56 -8 -14 -14 -37 -15 -52 0 -15 -6 -42 -14 -60 -17 -42 -35 -94 -46 -133 -5
-16 -18 -55 -30 -85 -12 -30 -26 -69 -31 -87 -5 -18 -14 -35 -19 -38 -6 -4
-10 -14 -10 -23 0 -9 -14 -46 -31 -82 -32 -68 -53 -115 -63 -140 -3 -8 -10
-23 -16 -32 -21 -37 -30 -55 -55 -103 -15 -27 -35 -63 -45 -80 -11 -16 -23
-37 -26 -45 -30 -71 -40 -89 -49 -86 -9 3 -32 45 -61 114 -17 40 -30 70 -89
197 -58 125 -72 156 -79 175 -3 8 -10 22 -15 30 -5 8 -24 47 -41 85 -18 39
-45 97 -60 130 -15 33 -42 90 -59 128 -128 277 -137 308 -105 380 30 67 79 96
184 106 62 6 65 7 74 39 7 25 6 36 -5 45 -11 9 -216 11 -879 7 -476 -3 -871
-2 -878 1 -11 4 -13 78 -12 380 1 206 5 423 8 483 6 85 4 113 -6 123 -27 26
-72 5 -72 -34 0 -59 -39 -259 -67 -343 -55 -165 -115 -274 -205 -374 -125
-139 -264 -218 -408 -235 -53 -6 -55 -7 -58 -38 -5 -47 15 -53 135 -41 56 6
109 8 118 5 14 -6 15 -84 14 -814 -2 -852 -2 -835 42 -983 31 -100 101 -215
181 -293 21 -21 38 -42 38 -47 0 -6 -30 -10 -67 -10 -74 0 -110 -8 -192 -39
-30 -11 -58 -18 -63 -15 -5 3 -14 1 -21 -4 -7 -5 -39 -17 -72 -27 -90 -26
-156 -46 -197 -61 -37 -14 -281 -55 -378 -64 -8 -1 -146 -3 -306 -4 -369 -3
-631 23 -757 75 -27 11 -55 18 -62 15 -8 -3 -39 4 -69 15 -31 10 -64 19 -74
19 -9 0 -26 6 -37 13 -11 7 -44 19 -74 25 -29 7 -67 19 -85 26 -221 99 -281
121 -367 130 -51 6 -79 15 -79 25 0 4 25 25 56 47 160 113 222 162 302 242 88
87 223 256 262 329 12 21 30 52 40 68 10 17 34 62 53 100 19 39 45 90 57 115
12 25 28 56 35 69 8 14 12 29 9 33 -3 4 -30 8 -60 8 -49 0 -55 -2 -64 -26 -86
-225 -321 -549 -495 -681 -33 -26 -64 -51 -70 -57 -30 -33 -270 -166 -299
-166 -7 0 -19 -6 -25 -14 -6 -8 -24 -16 -39 -19 -15 -2 -40 -9 -57 -15 -186
-64 -543 -79 -730 -31 -22 6 -58 14 -80 18 -22 4 -51 13 -65 18 -14 6 -45 19
-70 28 -60 24 -178 81 -215 105 -16 11 -37 23 -45 27 -41 18 -185 137 -266
217 -171 171 -316 397 -409 636 -9 25 -22 56 -27 70 -6 14 -14 41 -18 60 -5
19 -13 49 -18 65 -17 50 -33 117 -42 175 -4 30 -14 78 -20 105 -21 80 -18 602
2 685 9 36 19 79 22 95 7 44 27 116 42 152 8 17 14 40 14 50 0 11 7 28 15 39
8 10 15 25 15 32 0 12 85 189 114 237 95 160 270 356 391 438 28 18 70 47 95
64 93 62 246 131 370 166 126 35 182 41 390 45 220 4 281 -3 425 -45 284 -83
524 -277 749 -606 25 -38 46 -70 46 -72 0 -2 13 -23 28 -47 16 -24 44 -74 63
-113 19 -38 39 -73 44 -77 16 -12 83 -9 91 3 6 10 -1 30 -27 82 -6 10 -21 55
-36 100 -14 45 -30 86 -34 92 -5 5 -9 18 -9 30 0 11 -7 33 -15 49 -8 15 -15
35 -15 43 0 8 -6 29 -13 46 -19 44 -77 224 -77 238 0 6 -6 25 -14 42 -14 32
-32 88 -59 182 l-14 50 -164 6 c-90 3 -202 13 -249 22 -47 8 -116 21 -155 27
-38 6 -89 15 -112 20 -23 5 -68 12 -100 15 -32 4 -111 13 -176 22 -174 23
-431 12 -632 -28 -27 -6 -70 -14 -95 -18 -25 -4 -64 -13 -87 -19 -92 -25 -121
-32 -140 -32 -11 0 -28 -9 -38 -20 -10 -11 -26 -20 -36 -20 -21 0 -56 -15
-194 -82 -104 -50 -111 -55 -183 -100 -24 -16 -45 -28 -48 -28 -6 0 -156 -114
-204 -154 -67 -58 -166 -161 -219 -228 -72 -92 -84 -91 -70 7 5 33 16 143 24
245 20 246 42 398 89 600 9 36 21 90 28 120 7 30 16 60 20 65 3 6 9 28 13 50
4 22 11 45 15 50 5 6 11 28 15 50 4 22 11 45 15 50 4 6 17 42 29 80 12 39 29
84 37 102 8 17 14 36 14 42 0 6 4 19 10 29 5 9 19 40 30 67 41 98 53 121 119
255 37 74 100 189 140 255 40 66 78 129 84 140 7 11 14 22 18 25 3 3 16 23 29
45 13 22 29 45 35 51 5 6 17 22 25 34 23 34 143 194 154 206 6 6 31 35 56 65
75 90 139 158 271 289 149 148 245 230 420 360 292 217 384 272 814 481 33 16
64 29 68 29 9 0 92 35 119 50 10 6 23 10 30 10 7 0 25 6 40 14 15 8 42 17 60
21 18 4 38 11 43 15 6 4 26 11 45 15 19 4 40 11 45 15 6 4 28 11 50 15 22 4
44 10 50 13 5 4 35 13 65 20 30 7 84 19 120 28 211 49 326 68 554 89 88 8 162
18 165 21 11 11 528 -4 671 -20z m-1823 -3593 c22 -9 34 -22 38 -41 4 -15 14
-45 24 -67 10 -23 24 -67 31 -99 6 -32 18 -73 26 -92 8 -18 14 -38 14 -44 0
-19 -20 -10 -29 13 -5 13 -21 31 -36 41 -14 9 -31 28 -37 42 -6 13 -15 24 -21
24 -9 0 -108 92 -170 158 -16 17 -38 32 -47 32 -19 0 -40 19 -40 36 0 7 15 14
33 17 53 6 180 -5 214 -20z m-1907 -13 c0 -18 -88 -90 -110 -90 -5 0 -10 -4
-10 -8 0 -5 -10 -14 -22 -20 -30 -14 -148 -109 -212 -171 -195 -188 -302 -336
-391 -543 -7 -18 -21 -49 -29 -70 -9 -20 -16 -45 -16 -55 0 -10 -5 -24 -10
-29 -6 -6 -13 -35 -17 -65 -7 -63 -18 -89 -38 -89 -8 0 -15 1 -16 3 -1 1 -5
74 -10 162 -4 88 -11 174 -14 190 -5 23 1 41 26 80 19 28 36 52 39 55 3 3 29
37 59 75 129 169 414 406 621 516 25 13 47 27 50 31 3 3 18 10 33 13 15 4 27
11 27 16 0 5 9 9 20 9 11 0 20 -4 20 -10z m-916 -985 c4 -89 13 -161 22 -187
13 -36 16 -94 14 -345 -1 -235 3 -324 15 -400 34 -208 66 -346 91 -395 8 -14
14 -33 14 -42 0 -25 89 -216 140 -301 16 -27 33 -57 37 -65 29 -63 238 -298
348 -390 65 -55 113 -90 124 -90 6 0 11 -4 11 -8 0 -5 10 -14 23 -21 12 -6 36
-20 52 -31 17 -10 44 -27 62 -36 18 -9 53 -37 77 -63 104 -107 112 -121 79
-121 -24 0 -151 39 -185 56 -14 8 -33 14 -41 14 -9 0 -28 6 -44 14 -15 8 -75
38 -133 66 -89 44 -233 130 -250 150 -3 3 -25 21 -50 39 -68 51 -186 168 -238
236 -25 33 -49 62 -52 65 -3 3 -28 39 -55 80 -63 94 -147 262 -188 375 -33 92
-39 112 -48 153 -5 23 -13 51 -19 61 -5 11 -10 35 -10 53 0 18 -8 56 -16 83
-24 73 -24 567 0 640 8 28 16 65 16 83 0 18 5 42 10 53 6 10 14 38 19 61 5 24
15 59 21 78 33 93 43 117 56 143 8 16 14 32 14 37 0 4 9 28 20 54 14 30 27 46
39 46 16 0 19 -15 25 -145z m5697 64 c-2 -8 -6 -42 -9 -76 -4 -63 -15 -76 -40
-51 -7 7 -12 22 -12 35 0 31 42 114 55 109 5 -2 8 -10 6 -17z m-87 -176 c-5
-27 -9 -460 -9 -963 0 -913 5 -1089 36 -1180 39 -116 78 -176 130 -202 61 -30
103 -46 137 -53 62 -13 30 -30 -54 -29 -85 1 -162 18 -180 40 -6 8 -16 14 -23
14 -6 0 -29 11 -50 25 -127 80 -202 197 -235 370 -13 68 -15 214 -17 934 l-1
854 48 35 c71 51 112 91 141 142 29 50 40 60 67 60 16 0 17 -5 10 -47z m116
-247 c0 -19 -5 -38 -11 -41 -15 -10 -17 -4 -11 38 5 47 22 49 22 3z m1438 -64
c2 -12 -1 -22 -7 -22 -20 0 -70 -64 -81 -106 -10 -34 -9 -54 3 -106 19 -75 45
-149 58 -162 5 -6 9 -17 9 -26 0 -10 14 -36 30 -58 17 -23 30 -47 30 -53 0
-10 37 -91 150 -324 31 -66 60 -127 64 -135 3 -8 10 -22 15 -30 5 -8 29 -58
54 -110 24 -52 79 -165 121 -251 42 -86 76 -159 76 -163 0 -5 -17 -27 -38 -51
-21 -24 -52 -63 -68 -87 -16 -24 -37 -52 -46 -62 -17 -19 -18 -18 -28 10 -12
32 -52 117 -166 351 -159 329 -222 459 -228 473 -3 8 -10 23 -16 33 -51 88
-61 117 -54 154 4 19 13 37 20 40 7 3 23 26 35 51 12 26 25 55 30 64 10 19 12
58 4 58 -3 0 -19 -10 -34 -21 -28 -20 -46 -66 -53 -129 -2 -14 -10 -26 -19
-28 -19 -4 -41 35 -180 323 -103 212 -156 290 -231 339 -16 10 -28 24 -28 32
0 11 38 12 213 8 116 -3 241 -1 277 4 80 11 84 11 88 -16z m-676 -13 c49 -25
131 -119 179 -204 63 -112 254 -508 284 -587 10 -27 22 -48 27 -48 4 0 13 -11
18 -25 6 -15 21 -49 34 -78 13 -29 26 -59 30 -67 3 -8 10 -22 15 -30 10 -15
124 -253 135 -280 3 -8 10 -22 15 -30 19 -30 231 -468 231 -476 0 -5 -30 -41
-67 -80 -38 -38 -111 -116 -164 -173 -93 -100 -96 -102 -114 -84 -44 44 -68
53 -150 53 -73 0 -83 -3 -126 -32 -95 -64 -146 -198 -121 -316 11 -52 10 -57
-10 -79 -12 -13 -27 -23 -35 -23 -7 0 -13 -3 -13 -8 0 -4 -17 -16 -37 -27 -20
-11 -41 -25 -47 -30 -52 -48 -260 -169 -481 -279 -119 -59 -165 -80 -265 -122
-19 -8 -42 -19 -50 -23 -9 -5 -30 -12 -48 -15 -17 -4 -34 -12 -37 -17 -4 -5
-14 -9 -23 -9 -9 0 -30 -7 -46 -15 -15 -8 -35 -15 -43 -15 -8 0 -29 -6 -46
-13 -43 -18 -124 -44 -167 -52 -19 -4 -39 -11 -45 -15 -5 -4 -32 -11 -60 -15
-27 -4 -54 -10 -60 -13 -17 -12 -261 -57 -415 -78 -182 -24 -318 -32 -560 -32
-304 -1 -510 17 -765 63 -182 33 -472 107 -558 143 -16 7 -34 12 -42 12 -7 0
-26 7 -41 15 -16 8 -37 15 -46 15 -9 0 -19 4 -23 9 -3 5 -20 13 -37 17 -18 3
-39 10 -48 15 -8 5 -37 18 -65 29 -27 11 -62 27 -77 35 -14 8 -33 15 -42 15
-9 0 -16 5 -16 10 0 6 -6 10 -12 10 -13 0 -227 107 -308 154 -25 14 -54 30
-65 35 -11 5 -37 21 -58 35 -21 14 -42 26 -47 26 -4 0 -10 3 -12 8 -4 9 -65
52 -73 52 -4 0 -12 6 -19 13 -8 6 -24 19 -36 27 -33 22 -230 169 -266 199 -18
14 -49 41 -70 59 -22 18 -67 54 -101 80 -36 27 -62 55 -63 66 0 14 4 16 18 10
31 -14 443 -17 523 -3 41 6 101 15 134 19 83 9 239 49 303 76 18 8 40 14 48
14 9 0 28 6 42 13 15 8 42 21 60 30 19 9 39 17 47 17 7 0 18 7 25 15 19 23 52
18 90 -15 19 -16 40 -29 46 -30 6 0 17 -7 24 -15 7 -8 20 -15 30 -15 10 0 23
-7 30 -15 7 -8 20 -15 30 -15 10 0 23 -7 30 -15 7 -8 23 -15 35 -15 12 0 28
-7 35 -15 7 -8 23 -15 35 -15 12 0 28 -7 35 -15 7 -8 21 -15 32 -15 11 0 32
-6 46 -14 30 -15 81 -33 127 -46 29 -8 59 -18 128 -41 17 -6 52 -15 77 -19 25
-5 65 -14 90 -20 112 -28 140 -34 210 -41 41 -4 95 -13 120 -19 30 -8 160 -12
390 -12 283 0 357 3 413 16 38 9 87 16 111 16 24 0 65 7 92 15 27 8 63 15 79
15 17 1 41 7 55 15 14 8 39 14 55 15 30 0 101 20 163 46 18 8 43 14 55 14 13
0 32 7 43 15 10 8 27 15 36 15 10 0 34 7 55 16 94 40 109 47 123 55 8 5 25 13
37 18 11 6 24 15 28 20 9 15 55 14 74 -2 9 -7 41 -22 71 -32 84 -30 319 -27
410 4 60 21 159 67 205 94 58 35 111 72 129 89 12 11 40 31 63 46 48 30 54 53
24 90 -20 23 -37 28 -43 13 -1 -5 -32 -30 -68 -57 -99 -75 -257 -144 -327
-144 -18 0 -58 12 -88 26 -44 21 -59 35 -71 63 -8 19 -21 42 -28 51 -25 28
-45 115 -60 263 -13 119 -16 287 -16 890 0 409 2 746 4 748 3 2 150 3 328 0
291 -3 327 -5 360 -22z m1850 -241 c-9 -9 -12 -4 -11 23 0 32 1 33 11 11 8
-17 8 -26 0 -34z m-412 -1017 c0 -11 -4 -23 -10 -26 -5 -3 -10 -13 -10 -22 0
-30 -43 -104 -59 -101 -25 5 -26 54 -2 75 12 9 21 23 21 30 0 6 6 16 13 20 8
4 16 16 20 26 9 23 27 22 27 -2z m-198 -353 c38 -73 40 -86 15 -141 -30 -66
-51 -118 -73 -184 -10 -29 -23 -53 -29 -53 -6 0 -19 19 -29 43 -10 23 -30 67
-46 98 l-28 56 39 44 c22 24 58 72 81 107 22 34 44 62 47 62 4 0 14 -15 23
-32z m-232 -288 c93 -184 91 -179 60 -249 -12 -25 -28 -59 -35 -74 -8 -16 -15
-33 -15 -38 0 -6 -23 -57 -50 -115 -33 -68 -65 -119 -92 -145 -38 -36 -46 -40
-87 -37 -40 3 -48 7 -72 42 -22 33 -27 54 -32 127 -3 48 -11 106 -18 128 -12
40 -11 43 12 59 56 38 262 258 282 300 12 25 35 26 47 2z m-6302 -90 c34 -16
69 -30 77 -30 7 0 16 -4 20 -9 3 -6 26 -13 50 -17 25 -3 48 -10 51 -15 3 -5
20 -9 38 -9 18 0 41 -6 51 -14 19 -14 19 -15 -8 -27 -22 -10 -43 -10 -100 -1
-160 25 -169 29 -219 81 -75 78 -62 91 40 41z m5774 -267 c36 -35 35 -53 -5
-80 -17 -13 -45 -34 -62 -49 -53 -46 -92 -74 -103 -74 -35 0 5 170 47 207 37
32 88 30 123 -4z m28 -190 c0 -100 22 -164 77 -218 41 -42 56 -48 153 -63 65
-10 59 -32 -15 -54 -33 -10 -74 -18 -90 -18 -43 0 -123 30 -170 64 -37 27
-105 106 -105 122 0 4 -6 15 -14 23 -7 9 -16 31 -19 48 -6 30 -3 35 36 62 23
16 62 47 86 70 24 23 48 41 53 41 4 0 8 -35 8 -77z"/>
<path d="M4165 7744 c-33 -7 -83 -13 -111 -14 -28 0 -73 -7 -100 -15 -27 -8
-62 -15 -78 -15 -15 0 -49 -6 -75 -14 -61 -19 -126 -35 -179 -45 -24 -4 -48
-13 -54 -19 -7 -7 -24 -12 -38 -12 -14 0 -35 -7 -46 -15 -10 -8 -31 -15 -45
-15 -14 0 -34 -7 -45 -15 -10 -8 -27 -15 -36 -15 -9 0 -29 -6 -45 -14 -15 -8
-65 -32 -110 -53 -80 -37 -101 -60 -52 -56 95 6 303 55 376 89 28 13 59 21 67
18 9 -3 28 2 44 12 15 10 47 21 72 25 25 3 83 16 129 29 46 12 100 23 120 24
20 1 41 5 47 8 6 4 96 17 200 29 160 18 219 21 384 15 215 -7 225 -8 355 -31
50 -8 99 -15 111 -15 12 0 52 -8 90 -16 38 -9 105 -24 149 -34 80 -17 261 -75
280 -89 5 -4 35 -13 65 -21 30 -7 75 -22 100 -33 97 -43 195 -92 198 -99 2 -5
9 -8 16 -8 7 0 33 -11 57 -24 24 -14 63 -35 87 -47 24 -12 52 -30 62 -41 10
-11 24 -21 31 -22 24 -4 110 -59 147 -93 19 -18 40 -33 47 -33 6 0 24 -14 41
-31 16 -17 42 -37 57 -45 36 -19 50 -31 158 -136 50 -49 95 -88 101 -88 6 0
25 -13 44 -30 18 -16 56 -37 84 -47 27 -10 49 -22 47 -28 -4 -10 -11 -15 -111
-62 -74 -36 -158 -104 -210 -169 -41 -51 -81 -83 -92 -72 -3 3 -1 64 5 134 11
138 6 161 -33 149 -18 -5 -148 -21 -366 -43 -55 -6 -65 -10 -65 -27 0 -14 14
-24 55 -40 70 -27 96 -64 105 -148 4 -34 5 -231 3 -437 -3 -349 -4 -377 -22
-407 -19 -31 -53 -53 -111 -70 -22 -6 -30 -15 -30 -32 l0 -23 320 0 c300 0
320 1 324 18 4 22 -25 44 -59 44 -14 0 -42 13 -62 30 -51 42 -58 95 -58 458
l0 301 88 87 c147 145 241 204 325 204 76 0 151 -71 182 -172 18 -58 20 -94
20 -428 0 -325 -2 -369 -17 -402 -21 -43 -62 -78 -92 -78 -29 0 -68 -28 -64
-47 3 -14 43 -16 314 -17 240 -1 315 -4 327 -14 10 -9 17 -36 20 -85 3 -40 10
-92 16 -117 25 -95 60 -310 69 -415 12 -155 13 -496 2 -585 -6 -41 -10 -86
-10 -100 0 -14 -5 -59 -10 -100 -21 -145 -21 -160 1 -209 19 -43 21 -45 35
-27 8 11 14 30 14 42 0 12 7 38 15 57 8 20 15 56 15 81 0 25 7 75 16 113 24
101 25 739 0 831 -9 35 -16 83 -16 107 0 23 -7 62 -15 85 -8 23 -15 59 -15 79
-1 20 -7 47 -15 61 -8 14 -14 40 -15 58 0 19 -6 48 -13 65 -24 55 -39 101 -47
140 -4 21 -13 44 -19 50 -6 6 -11 23 -11 37 0 14 -7 35 -15 46 -8 10 -15 31
-15 45 0 15 -7 32 -15 39 -8 7 -15 19 -15 27 0 13 -16 49 -42 93 -4 8 -13 27
-19 43 -16 41 -41 36 -27 -5 10 -35 24 -84 37 -133 14 -55 54 -159 73 -193 10
-18 16 -37 13 -43 -10 -15 -45 -10 -85 12 -61 34 -73 79 -66 246 7 171 7 167
-2 398 -5 115 -14 204 -22 225 -68 178 -201 279 -371 280 -71 0 -81 5 -124 65
-61 84 -255 263 -430 396 -79 60 -210 148 -250 169 -11 6 -33 19 -50 30 -16
11 -39 24 -50 30 -19 9 -27 14 -72 40 -10 6 -25 13 -33 16 -8 3 -22 10 -30 15
-8 5 -22 12 -30 15 -8 3 -22 10 -30 15 -8 5 -22 12 -30 15 -8 3 -27 12 -42 20
-14 8 -33 14 -41 14 -8 0 -20 7 -27 15 -7 8 -22 15 -34 15 -11 0 -30 7 -40 15
-11 8 -30 15 -42 15 -12 0 -27 7 -34 15 -7 8 -23 15 -36 15 -13 0 -38 6 -56
14 -59 24 -102 38 -143 45 -22 4 -50 13 -62 19 -12 7 -35 12 -51 12 -16 0 -46
7 -65 15 -20 8 -52 15 -70 15 -19 0 -54 7 -77 15 -23 8 -66 15 -94 15 -28 0
-83 7 -121 15 -95 20 -621 20 -710 -1z m2986 -1180 c62 -39 97 -77 129 -142
l32 -64 3 -389 c3 -352 5 -392 21 -417 9 -15 26 -33 36 -40 10 -7 16 -18 13
-23 -9 -14 -255 -12 -255 2 0 6 14 27 30 46 l30 34 0 359 c0 240 4 367 11 383
9 20 7 31 -15 65 -14 23 -26 46 -26 52 0 23 -53 92 -90 116 -40 27 -46 35 -33
47 11 12 76 -5 114 -29z m-744 -499 l2 -510 30 -27 c17 -15 31 -32 31 -38 0
-6 -49 -10 -130 -10 -83 0 -130 4 -130 10 0 6 9 21 21 33 11 12 25 32 30 45 5
13 9 220 9 459 l0 436 -44 43 c-25 23 -42 45 -39 48 4 3 29 6 57 7 28 1 62 5
76 9 14 5 39 8 55 7 l30 -2 2 -510z"/>
<path d="M7220 6296 c0 -8 5 -18 10 -21 6 -3 10 1 10 9 0 8 -4 18 -10 21 -5 3
-10 -1 -10 -9z"/>
<path d="M2585 7443 c-50 -16 -107 -38 -135 -55 -8 -4 -22 -11 -30 -15 -71
-32 -180 -147 -222 -233 -47 -97 -62 -235 -33 -303 8 -20 15 -45 15 -55 0 -10
-41 -61 -92 -113 -80 -83 -268 -317 -268 -335 0 -3 -13 -23 -28 -43 -16 -20
-32 -43 -35 -51 -4 -8 -16 -28 -27 -45 -11 -16 -24 -39 -30 -50 -6 -11 -26
-47 -45 -80 -18 -33 -44 -80 -56 -105 -12 -25 -25 -52 -30 -60 -5 -8 -12 -22
-15 -30 -3 -8 -12 -30 -20 -47 -8 -18 -21 -49 -29 -68 -8 -19 -21 -50 -29 -67
-8 -18 -16 -42 -19 -53 -3 -11 -15 -45 -27 -75 -12 -30 -26 -71 -30 -90 -4
-19 -13 -48 -18 -65 -6 -16 -17 -52 -26 -80 -27 -85 -16 -171 15 -113 10 20
31 49 69 95 6 7 10 18 10 26 0 30 149 430 185 497 8 14 23 45 34 70 30 66 88
169 106 186 8 9 15 22 15 29 0 7 11 27 25 43 14 17 25 37 25 45 0 9 16 31 35
50 19 19 35 37 35 41 0 4 11 22 25 40 14 18 25 36 25 40 0 6 60 83 103 132 59
67 79 98 93 146 21 72 31 79 56 43 35 -49 140 -147 201 -188 50 -33 135 -76
277 -138 357 -158 464 -231 530 -366 30 -61 34 -77 34 -153 1 -207 -113 -335
-341 -384 -91 -20 -128 -20 -217 0 -147 34 -256 109 -365 253 -78 102 -116
177 -163 321 -15 46 -38 60 -66 41 -12 -7 -11 -21 2 -82 8 -41 17 -121 20
-179 8 -171 18 -269 30 -286 12 -16 151 -69 221 -84 45 -10 101 -24 190 -48
87 -24 403 -23 459 1 21 9 45 17 53 17 8 0 59 21 112 47 77 38 111 62 171 123
123 124 170 235 170 405 0 109 -16 179 -61 265 -28 53 -162 190 -210 215 -113
59 -231 115 -243 115 -8 0 -17 4 -20 9 -3 4 -34 19 -68 32 -35 12 -105 42
-156 66 -50 24 -94 43 -97 43 -2 0 -39 21 -82 47 -84 51 -132 97 -160 153 -10
19 -24 41 -30 48 -19 20 -16 136 5 195 41 122 184 208 346 210 80 1 181 -20
197 -40 6 -7 16 -13 21 -13 36 0 138 -68 195 -129 46 -50 105 -176 123 -263 9
-44 26 -68 49 -68 31 0 39 18 25 58 -7 20 -13 51 -14 69 0 17 -5 44 -10 59
-16 40 -50 223 -50 265 l0 37 -71 4 c-60 3 -74 7 -91 27 -17 22 -22 23 -58 12
-31 -9 -45 -9 -72 3 -108 45 -312 60 -413 29z m-224 -211 c-57 -80 -76 -202
-49 -309 26 -104 148 -216 321 -297 44 -20 82 -36 86 -36 5 0 28 -11 53 -24
24 -13 55 -27 69 -31 28 -9 126 -54 221 -101 143 -72 220 -134 280 -226 56
-86 72 -141 72 -248 0 -99 -11 -143 -62 -240 -29 -54 -97 -124 -113 -115 -7 5
-6 12 3 23 66 84 92 218 63 329 -49 181 -174 290 -500 432 -183 80 -326 151
-385 192 -95 65 -170 161 -170 220 0 10 -8 22 -17 28 -25 14 -25 175 1 246 28
79 67 145 106 176 40 33 51 23 21 -19z m-121 -1518 c24 -36 72 -91 107 -122
67 -61 77 -82 40 -82 -28 0 -159 64 -181 89 -23 25 -35 181 -13 181 2 0 23
-30 47 -66z"/>
<path d="M2855 7299 c-33 -16 -73 -38 -90 -49 -16 -11 -40 -24 -52 -30 -13 -5
-23 -14 -23 -20 0 -5 -5 -10 -10 -10 -24 0 -220 -161 -220 -180 0 -19 69 -10
122 15 80 39 110 57 143 88 17 16 62 53 102 83 62 47 103 97 103 126 0 13 -10
10 -75 -23z"/>
<path d="M5477 7189 c-86 -71 -99 -187 -30 -265 79 -88 190 -83 271 12 29 34
32 43 32 106 0 59 -4 74 -26 103 -40 52 -86 75 -152 75 -49 0 -63 -4 -95 -31z
m127 -35 c12 -31 7 -222 -6 -230 -22 -14 -71 -4 -93 19 -33 33 -45 61 -45 106
0 33 7 47 38 81 42 43 94 55 106 24z"/>
<path d="M4088 6644 c-6 -5 -226 -31 -353 -41 -100 -8 -108 -40 -17 -67 32 -9
56 -25 77 -50 l30 -38 3 -796 c2 -727 1 -800 -14 -834 -19 -42 -50 -66 -109
-83 -32 -10 -41 -17 -43 -39 l-3 -26 199 0 c110 0 214 3 231 6 23 5 41 19 62
51 l31 44 -26 59 c-25 59 -25 60 -27 370 0 171 2 314 5 317 8 8 39 -9 98 -51
125 -90 333 -103 481 -30 16 8 33 14 39 14 19 0 124 76 175 128 80 80 137 176
179 302 14 42 18 85 18 185 0 158 -18 221 -96 340 -41 64 -179 185 -210 185
-7 0 -22 6 -33 14 -31 21 -161 46 -239 46 -117 0 -260 -54 -345 -130 -66 -59
-75 -55 -69 33 3 39 3 78 1 85 -5 12 -35 17 -45 6z m661 -89 c174 -102 272
-281 272 -497 0 -208 -84 -396 -228 -510 -56 -44 -79 -36 -40 15 44 58 84 141
106 219 17 60 21 102 21 226 0 246 -46 385 -164 503 -89 88 -74 107 33 44z
m-727 13 c2 -7 3 -391 2 -853 -2 -832 0 -895 30 -920 7 -5 18 -20 24 -32 l12
-21 -125 0 c-77 0 -125 4 -125 10 0 6 11 23 25 40 l25 30 0 823 0 823 -45 40
c-24 21 -42 42 -38 46 3 3 31 6 62 7 31 0 65 4 76 9 30 13 72 12 77 -2z m529
1 c66 -20 144 -100 190 -195 42 -87 51 -124 71 -304 10 -91 9 -119 -6 -205
-31 -177 -79 -276 -167 -347 -72 -57 -158 -72 -250 -44 -67 20 -104 41 -186
102 l-73 54 0 374 0 374 51 46 c60 54 120 95 169 117 19 9 46 21 60 27 33 14
94 15 141 1z"/>
<path d="M5708 6645 c-5 -6 -100 -17 -368 -44 -56 -5 -65 -9 -65 -26 0 -15 12
-24 48 -36 26 -8 58 -25 71 -38 45 -43 49 -78 48 -502 0 -370 -1 -399 -19
-440 -20 -44 -49 -65 -118 -86 -22 -6 -30 -15 -30 -32 l0 -23 325 0 c283 0
325 2 328 15 4 18 -35 47 -63 47 -25 0 -71 30 -93 61 -15 22 -17 77 -22 564
-4 477 -7 540 -20 543 -9 1 -19 0 -22 -3z m-78 -82 c1 -10 2 -239 3 -510 l2
-492 33 -29 c53 -48 45 -52 -91 -52 -68 0 -126 3 -130 6 -3 4 8 24 26 46 l32
40 3 440 3 440 -46 45 c-25 25 -45 50 -45 54 0 5 26 9 58 10 31 0 66 4 77 9
36 16 75 12 75 -7z"/>
<path d="M4500 4815 c-82 -18 -106 -31 -132 -65 -21 -29 -27 -31 -63 -27 -22
3 -50 9 -62 13 -18 5 -25 1 -32 -17 -12 -33 -6 -39 40 -39 46 0 50 -14 19 -75
-22 -43 -27 -145 -10 -203 13 -46 74 -135 107 -158 71 -47 92 -54 170 -54 111
0 147 8 183 41 17 16 37 29 43 30 16 0 79 97 72 109 -8 12 -35 13 -35 2 0 -5
-14 -29 -31 -55 -46 -70 -91 -87 -204 -79 -77 6 -96 11 -135 37 -25 17 -62 56
-84 87 -37 54 -38 60 -38 132 1 41 8 90 16 108 39 90 186 183 251 158 17 -6
36 -19 43 -28 12 -16 14 -16 23 1 12 21 35 22 83 2 23 -10 36 -22 36 -34 0
-10 9 -26 19 -35 11 -10 21 -28 23 -40 4 -31 32 -26 36 7 3 23 -8 38 -60 88
-67 64 -100 83 -161 94 -21 3 -44 8 -50 10 -7 1 -37 -3 -67 -10z"/>
<path d="M1269 4773 c-22 -26 -26 -554 -5 -666 9 -46 16 -103 16 -128 1 -24 7
-62 15 -84 8 -22 15 -58 15 -80 0 -22 7 -53 15 -69 8 -15 15 -42 15 -60 1 -17
7 -42 15 -56 8 -14 15 -38 15 -55 0 -16 7 -41 15 -55 8 -14 14 -37 15 -51 0
-14 7 -34 15 -45 8 -10 15 -27 15 -36 0 -17 19 -67 46 -121 8 -16 14 -35 14
-44 0 -8 6 -27 13 -41 8 -15 22 -45 32 -67 9 -22 21 -47 26 -55 5 -8 11 -19
13 -25 2 -5 7 -17 10 -25 3 -8 10 -22 15 -30 5 -8 12 -22 15 -30 3 -8 22 -42
41 -75 19 -33 40 -69 46 -80 26 -52 138 -221 198 -300 131 -173 367 -425 486
-519 28 -22 55 -45 60 -51 16 -17 166 -129 212 -158 42 -26 83 -35 83 -18 0
35 -30 77 -97 133 -42 34 -85 68 -95 74 -11 7 -33 25 -49 40 -16 16 -45 43
-65 59 -36 30 -169 161 -291 289 -35 36 -63 72 -63 79 0 8 -12 23 -26 33 -35
25 -33 23 -127 157 -88 126 -136 201 -164 257 -10 19 -28 49 -39 65 -38 54
-174 352 -174 383 0 10 -4 22 -9 27 -11 12 -81 221 -81 242 0 7 -10 42 -21 76
-19 54 -40 147 -55 242 -30 180 -37 265 -44 530 -7 300 -14 355 -45 355 -7 0
-19 -7 -26 -17z"/>
<path d="M4862 4748 c5 -15 28 -23 28 -10 0 5 -7 13 -16 16 -10 4 -14 1 -12
-6z"/>
<path d="M4941 4605 c0 -5 6 -19 14 -29 8 -11 15 -15 15 -10 0 6 -7 19 -15 30
-8 10 -14 15 -14 9z"/>
<path d="M4846 4531 c-9 -14 5 -101 15 -95 12 7 11 91 0 99 -5 3 -12 1 -15 -4z"/>
<path d="M4140 4407 c0 -27 6 -49 15 -57 8 -7 15 -21 15 -32 0 -20 38 -78 52
-78 4 0 8 9 8 20 0 11 -4 20 -9 20 -16 0 -49 68 -56 114 -10 61 -25 69 -25 13z"/>
<path d="M4928 4334 c-10 -19 -18 -41 -18 -49 0 -21 20 -18 20 3 0 9 7 26 15
36 16 21 20 46 8 46 -5 0 -16 -16 -25 -36z"/>
<path d="M4850 4220 c-18 -16 -36 -30 -40 -30 -4 0 -15 -11 -24 -25 -23 -35
-2 -32 41 5 18 17 38 30 42 30 9 0 23 41 17 47 -2 2 -18 -10 -36 -27z"/>
<path d="M4236 4223 c-6 -7 31 -44 70 -70 36 -23 39 -10 7 25 -31 33 -67 54
-77 45z"/>
<path d="M4370 4125 c0 -10 10 -15 28 -15 26 1 26 1 8 15 -25 19 -36 19 -36 0z"/>
<path d="M4659 4109 l-24 -20 29 6 c15 3 41 9 57 12 40 8 36 23 -5 23 -20 0
-43 -8 -57 -21z"/>
<path d="M4670 3730 c-74 -10 -160 -19 -191 -19 -30 -1 -82 -6 -115 -12 -32
-7 -131 -19 -219 -28 l-160 -16 -3 -32 c-3 -28 0 -32 30 -37 120 -23 152 -39
210 -101 42 -46 49 -58 72 -136 14 -49 16 -141 16 -780 0 -692 -1 -727 -20
-787 -25 -79 -36 -100 -74 -138 -38 -37 -75 -57 -141 -73 -85 -21 -95 -28 -95
-60 0 -41 19 -48 98 -40 91 10 929 9 1017 0 79 -9 95 -3 95 40 0 32 -10 38
-95 60 -89 22 -162 80 -194 154 -38 86 -42 194 -40 1124 l1 896 -28 2 c-16 1
-90 -7 -164 -17z m-15 -90 c3 -5 7 -440 8 -966 l2 -956 39 -34 c22 -19 45 -34
52 -34 7 0 22 -12 34 -27 17 -22 18 -29 8 -40 -11 -10 -31 -11 -98 -3 -96 11
-268 12 -351 1 -31 -4 -62 -5 -68 -3 -20 7 -11 31 21 59 18 16 47 42 65 59
l33 32 0 847 0 847 -21 30 c-12 16 -53 50 -90 74 -67 43 -79 57 -60 69 5 3 83
12 173 20 90 7 175 18 188 24 33 13 57 13 65 1z"/>
<path d="M7255 2731 c-28 -9 -95 -52 -95 -60 0 -3 -13 -21 -30 -39 -16 -18
-30 -39 -30 -45 0 -16 -98 -130 -121 -141 -10 -5 -19 -17 -19 -28 0 -10 -28
-47 -62 -82 -35 -35 -80 -85 -101 -110 -21 -25 -55 -56 -76 -68 -20 -11 -50
-39 -65 -60 -15 -22 -47 -51 -70 -66 -22 -14 -64 -47 -92 -72 -27 -25 -77 -67
-110 -94 -47 -39 -114 -127 -114 -151 0 -11 37 -2 65 16 17 10 37 22 45 26 8
3 28 19 44 35 17 15 34 28 39 28 9 0 83 55 102 76 6 6 30 26 55 44 104 79 321
298 435 439 33 41 70 86 82 100 12 14 22 31 23 36 0 6 12 23 28 40 30 32 41
50 70 110 37 77 37 80 -3 66z"/>
</g>
</svg>
